# xmcd
#
# Track frame offsets: 
#        182
#        28972
#        39710
#        70717
#        91925
#        115395
#        134410
#        155405
#        176735
#        197362
#        212125
#        231847
#        260275
#        275302
#        293905
#        306155
#
# Disc length: 4393 seconds
#
# Revision: 4
# Processed by: cddbd v1.5.2PL0 Copyright (c) Steve Scherf et al.
# Submitted via: ExactAudioCopy v0.95b3
#
DISCID=e9112710
DTITLE=Vari - New Age - Liberty
DYEAR=1997
DGENRE=New Age
TTITLE0=Hans Zimmer - Pour brontè
TTITLE1=Northcote and Jehan - Transvision 2
TTITLE2=Dancing Fantasy - Close to you
TTITLE3=3RD Force - In the full moon light
TTITLE4=Fred Ventura - Je hais et j'aime
TTITLE5=Soul Ballet - Exotique
TTITLE6=Akira Jimbo - Land of innocence
TTITLE7=East Bounce - Dreams of water
TTITLE8=Keiko Matsui - A cat on the chimney
TTITLE9=Shanon - Tara tain
TTITLE10=Tingstad and Rumbel - Pastorale
TTITLE11=James Perry - Peace like a river
TTITLE12=Mark Hawkins - Wide world
TTITLE13=Bradley Joseph - A lover's return
TTITLE14=Al Patteway - Seven swans
TTITLE15=Deborah Henson Conant - 996
EXTD=
EXTT0=Hans Zimmer\n
EXTT1=Peter Northcote and Lindsay Jehan\n
EXTT2=Dancing Fantasy\n
EXTT3=3rd Force feat. Rick Braun\n
EXTT4=Fred Ventura\n
EXTT5=Soul Ballet\n
EXTT6=Akira Jimbo\n
EXTT7=East Bounce\n
EXTT8=Keiko Matsui\n
EXTT9=Shanon\n
EXTT10=Eric Tingstad and Nancy Rumbel\n
EXTT11=James Perry\n
EXTT12=Mark Hawkins\n
EXTT13=Bradley Joseph\n
EXTT14=Al Patteway\n
EXTT15=Deborah Henson-Conant\n
PLAYORDER=
